HIERARCHY
ROOT Hips
{
  OFFSET -187.679 86.5976 -156.378
  CHANNELS 6 Xposition Yposition Zposition Zrotation Xrotation Yrotation
  JOINT LeftUpLeg
  {
    OFFSET 8.64259 1.95398 -2.38835
    CHANNELS 3 Zrotation Xrotation Yrotation
    JOINT LeftLeg
    {
      OFFSET 43.7702 0 0
      CHANNELS 3 Zrotation Xrotation Yrotation
      JOINT LeftFoot
      {
        OFFSET 40.6238 0 0
        CHANNELS 3 Zrotation Xrotation Yrotation
        JOINT LeftToeBase
        {
          OFFSET 12.7242 0 0
          CHANNELS 3 Zrotation Xrotation Yrotation
          End Site
          {
            OFFSET 0 0 0
          }
        }
      }
    }
  }
  JOINT RightUpLeg
  {
    OFFSET -8.2249 1.95398 -2.59336
    CHANNELS 3 Zrotation Xrotation Yrotation
    JOINT RightLeg
    {
      OFFSET 43.5653 0 0
      CHANNELS 3 Zrotation Xrotation Yrotation
      JOINT RightFoot
      {
        OFFSET 40.6238 0 0
        CHANNELS 3 Zrotation Xrotation Yrotation
        JOINT RightToeBase
        {
          OFFSET 12.7242 0 0
          CHANNELS 3 Zrotation Xrotation Yrotation
          End Site
          {
            OFFSET 0 0 0
          }
        }
      }
    }
  }
  JOINT Spine
  {
    OFFSET 0.165834 0.87714 6.61349
    CHANNELS 3 Zrotation Xrotation Yrotation
    JOINT Spine1
    {
      OFFSET 7.38963 1.71661e-005 0
      CHANNELS 3 Zrotation Xrotation Yrotation
      JOINT Spine2
      {
        OFFSET 11.9445 1.14441e-005 0
        CHANNELS 3 Zrotation Xrotation Yrotation
        JOINT Spine3
        {
          OFFSET 14.7254 4.19617e-005 0
          CHANNELS 3 Zrotation Xrotation Yrotation
          JOINT Spine4
          {
            OFFSET 10.9679 0 0
            CHANNELS 3 Zrotation Xrotation Yrotation
            JOINT RightShoulder
            {
              OFFSET 2.46616 -1.6653 3.69651
              CHANNELS 3 Zrotation Xrotation Yrotation
              JOINT RightArm
              {
                OFFSET 13.0012 0 0
                CHANNELS 3 Zrotation Xrotation Yrotation
                JOINT RightForeArm
                {
                  OFFSET 28.7848 1.52588e-005 0
                  CHANNELS 3 Zrotation Xrotation Yrotation
                  JOINT RightHand
                  {
                    OFFSET 26.5688 1.52588e-005 0
                    CHANNELS 3 Zrotation Xrotation Yrotation
                    End Site
                    {
                      OFFSET 0 0 0
                    }
                  }
                }
              }
            }
            JOINT LeftShoulder
            {
              OFFSET 2.38034 -1.29275 -3.7523
              CHANNELS 3 Zrotation Xrotation Yrotation
              JOINT LeftArm
              {
                OFFSET 16.3182 6.10352e-005 0
                CHANNELS 3 Zrotation Xrotation Yrotation
                JOINT LeftForeArm
                {
                  OFFSET 27.0901 0 0
                  CHANNELS 3 Zrotation Xrotation Yrotation
                  JOINT LeftHand
                  {
                    OFFSET 24.5451 1.52588e-005 0
                    CHANNELS 3 Zrotation Xrotation Yrotation
                    End Site
                    {
                      OFFSET 0 0 0
                    }
                  }
                }
              }
            }
            JOINT Neck
            {
              OFFSET 5.0226 -0.0266342 0
              CHANNELS 3 Zrotation Xrotation Yrotation
              JOINT Head
              {
                OFFSET 6.69363 2.86102e-005 0
                CHANNELS 3 Zrotation Xrotation Yrotation
                End Site
                {
                  OFFSET 0 0 0
                }
              }
            }
          }
        }
      }
    }
  }
}
MOTION
Frames:	9
Frame Time:	0.0416667
-0.016256 97.9369 -89.9528 -157.244 -79.3221 -160.232 -179.246 14.6191 84.8777 -12.5764 12.5087 5.50661 64.1311 2.04212 -3.62781 16.2861 -7.7287 5.82774 170.422 -22.2143 86.2213 -19.6088 -2.99543 0.399852 78.4727 -6.28741 -0.972869 29.252 -1.32983 4.80509 1.05681 8.25779 -89.4461 10.3492 2.35894 0.89528 -1.31981 2.39604 0.790545 -23.8653 1.98081 1.56301 -3.85268 1.9808 1.56301 84.528 -48.2975 -109.481 14.1133 -18.7473 -26.3364 -21.9066 -18.5104 -26.0179 -9.20671 -0.0971064 -3.97172 -91.5818 -50.9663 76.8318 -29.0597 16.7645 9.67104 8.71263 -7.99683 -13.144 -4.71285 -0.155459 -0.94174 1.30977 -2.55881 -0.590461 11.1666 -2.6054 -1.53927 
0.411076 97.8437 -82.0818 -143.924 -78.0774 -147.848 -178.45 15.8408 83.9437 -21.5589 14.0283 4.64746 61.1713 0.518297 -2.79915 13.4322 -8.8597 5.3116 168.022 -24.3458 82.3576 -21.2871 -7.06274 -1.21311 72.961 -4.97957 -1.95287 35.2394 -0.380899 6.0587 1.24371 8.09495 -89.2507 10.6693 2.82186 1.23173 -0.999028 2.87333 1.10626 -23.5474 2.32124 2.0231 -3.53481 2.32124 2.02309 84.1187 -48.3985 -110.072 16.6252 -21.7506 -24.8281 -19.0573 -18.4232 -21.4765 -9.56711 -0.0467608 -4.64146 -91.0911 -51.4042 77.6542 -29.3984 13.6274 10.0472 9.12458 -8.39342 -13.3241 -5.65226 -0.168459 -1.31708 0.85331 -2.28646 -1.5022 10.2559 -2.1863 -1.44766 
0.938358 98.0717 -74.4482 -141.708 -77.4872 -147.436 -177.459 15.252 81.6634 -29.7614 14.5855 3.43662 66.1884 2.52858 -2.08941 7.80679 -10.1372 2.63698 166.757 -21.0619 78.8794 -31.6324 -8.54965 -3.12486 65.0985 -2.62091 -2.34189 38.9873 -0.455939 10.3177 1.1505 7.96731 -88.9822 10.9163 2.76138 1.76401 -0.752742 2.83634 1.64071 -23.2934 2.10371 2.51232 -3.28076 2.10371 2.51232 84.6777 -48.0763 -109.326 21.2774 -25.1874 -21.9275 -15.7633 -18.8049 -16.1845 -8.46446 0.0160419 -5.52845 -91.2768 -51.2336 77.3427 -28.6098 14.1446 9.04561 8.86081 -8.72696 -12.9101 -5.35083 -0.156822 -1.49229 -0.0927572 -2.2355 -2.21449 8.78957 -2.07808 -1.8679 
1.28933 98.6354 -68.1143 -139.649 -76.3062 -146.526 -177.17 11.3265 79.7509 -31.9394 13.7721 3.26204 69.8474 4.2941 -0.544482 8.13996 -9.85626 2.42129 168.197 -12.4096 77.6787 -49.5984 -9.30187 -5.39702 57.0979 -0.0303302 -1.22911 28.5876 -2.54671 8.80732 1.05187 8.01311 -88.8761 10.8219 2.61339 1.99179 -0.847736 2.69851 1.87481 -23.3831 1.89417 2.68496 -3.3705 1.89418 2.68496 84.6947 -47.7972 -109.394 24.5386 -27.0854 -18.2677 -13.899 -17.4665 -13.5042 -8.7295 0.0502341 -6.0465 -91.8839 -51.9271 76.6188 -24.0983 20.6554 2.84171 8.23702 -6.81466 -9.40962 -5.2152 -0.152323 -1.5471 -0.24717 -1.78233 -1.80357 8.12979 -1.69929 -2.04694 
1.30673 98.8668 -62.835 -138.412 -75.2004 -145.701 -176.716 7.52153 78.6743 -33.2499 13.7147 3.45369 72.7082 5.54893 0.998604 9.08125 -9.19588 2.03939 171.178 -3.21198 78.8726 -63.1709 -6.96671 -6.32343 55.78 0.144092 -0.249481 22.8709 -3.0127 6.02572 0.830072 8.13405 -88.8704 10.5823 2.17253 2.04967 -1.08828 2.26062 1.95207 -23.618 1.45631 2.60761 -3.60534 1.45632 2.60761 85.0015 -47.7762 -108.929 26.4271 -26.958 -15.1122 -14.9748 -19.9889 -15.2343 -9.34292 -0.0252819 -4.93974 -91.9601 -51.2752 76.3525 -19.1953 21.5106 -4.47189 8.45402 -5.68513 -8.18382 -4.66802 -0.128136 -2.00222 -1.14724 -0.677754 -1.204 8.86188 -0.745626 -2.32531 
1.11368 99.283 -58.0708 -138.79 -74.5115 -145.102 -176.465 3.38456 79.0618 -33.0458 13.0985 4.15957 74.9426 6.36853 1.03288 9.96957 -8.67228 1.83211 173.756 4.25427 81.9019 -67.1253 -2.75797 -5.76561 64.3987 -2.66796 -0.395646 25.3776 -2.64252 6.57656 0.50453 8.25783 -88.9822 10.3419 1.47095 1.89345 -1.32953 1.55285 1.82688 -23.8563 0.834053 2.24784 -3.84364 0.83405 2.24783 84.8512 -49.0555 -108.736 26.2364 -26.3356 -12.9371 -15.2625 -16.7655 -16.2335 -9.148 -0.0576264 -4.49814 -91.7453 -48.9358 76.0937 -14.2706 22.5711 -9.87917 7.8516 -8.63201 -11.2812 -3.62927 -0.1137 -1.91474 -2.20419 0.708288 -2.56397 9.41189 0.954127 -0.513204 
0.808201 99.7947 -53.5074 -138.688 -74.8639 -143.082 -176.671 -0.290456 80.0472 -31.665 12.9794 5.94236 76.6498 6.91382 0.879307 10.4619 -8.69198 2.29037 175.584 10.6226 85.8552 -61.5763 2.33948 -4.21832 68.0735 -3.86989 -0.509139 25.9612 -1.84898 4.49458 0.135754 8.2632 -89.2733 10.3417 0.603094 1.39115 -1.32985 0.663734 1.36326 -23.8592 0.157172 1.50806 -3.84653 0.157169 1.50807 85.0717 -49.3063 -108.319 26.4386 -25.0673 -10.6892 -16.4405 -17.4335 -17.864 -8.31178 -0.0149089 -5.08028 -90.8933 -47.2955 76.9841 -11.7204 19.075 -13.6039 8.77319 -8.10508 -17.0582 -1.65701 -0.0646553 -0.64986 -3.95817 2.00593 -2.4331 9.72417 2.2847 0.409174 
0.132287 100.139 -48.995 -140.44 -75.9071 -143.246 -176.256 -3.86405 81.8106 -29.7481 14.2677 6.68039 77.4809 7.62354 1.25514 11.9276 -8.22578 2.6921 176.489 14.634 88.9743 -48.8837 4.89811 -2.22283 67.8174 -3.84038 -0.561971 26.5859 -1.2449 2.94976 -0.201056 8.26934 -89.5236 10.3349 -0.18251 0.962586 -1.33635 -0.139958 0.969678 -23.8693 -0.46336 0.863253 -3.85663 -0.463354 0.863248 85.2718 -49.4526 -107.968 26.9607 -23.8671 -7.95555 -16.7905 -15.1332 -19.0179 -9.34353 -0.0859823 -4.12682 -90.2995 -44.9401 77.3308 -10.8605 15.4701 -18.6568 10.079 -6.01875 -18.6992 -2.25113 -0.0861128 -2.67917 -5.07946 2.80582 -2.4565 9.56194 3.1154 0.966161 
-0.61025 100.032 -44.3519 -140.467 -77.4856 -142.567 -175.375 -6.53708 83.3793 -28.2315 16.4439 6.48587 78.9912 8.70772 1.42474 11.6158 -8.24026 2.44438 176.984 16.7117 90.6128 -31.821 7.65225 -0.171335 63.3065 -2.72302 0.290023 28.2244 -1.14778 3.63961 -0.393908 8.22815 -89.6385 10.4188 -0.618967 0.772489 -1.25221 -0.584374 0.798984 -23.7875 -0.822516 0.550753 -3.77485 -0.822515 0.550751 84.9883 -50.3474 -108.111 27.2427 -22.0687 -5.8891 -17.1852 -15.2944 -19.0835 -8.68201 -0.0319904 -4.81777 -90.0564 -42.871 77.2065 -10.6785 12.5576 -23.2104 10.6694 -5.58929 -20.6019 -0.810681 -0.0686204 -2.84349 -5.22671 3.00105 -4.23668 8.87489 3.62922 2.52622 
